<svg xmlns="http://www.w3.org/2000/svg" width="623.6" height="925" viewBox="-534 888 623.6 925"><path fill="#E8E18F" stroke="#000" stroke-width="10" stroke-linecap="round" stroke-linejoin="round" d="M-223 1796c-42 0-51-10-90-26l-110-45c-36-17-103-35-96-59l14-38c9-26 9-30 22-35 18-4 36 1 63 26 23 18 23 4 23 4 1-3-9-17-21-11 0 0-6 4-4 5 18 17 24 9 24 9l-6 20c142 62 182 59 182 59s49 4 182-59l-7-20s5 9 26-10c5-4-9-5-9-5-15 1-18 10-17 12 0 0 0 14 22-4 27-25 46-30 64-26 13 5 13 9 22 35l14 38c7 24-43 35-96 59l-120 50c-35 17-31 21-82 21z"/><path fill="none" stroke="#000" stroke-width="4" stroke-linecap="round" stroke-linejoin="round" d="M-453 1614s-49-23 49 32m412-32s50-23-48 32"/><path d="M-465 1682c-1 3 0 5 1 7s3 4 6 5l2 1v1l-8-2c-4-1-6-3-8-6s-3-6-3-10c-4-3-7-7-8-11-1-5-1-9 1-14 3-6 6-9 12-11 5-2 10-2 16 0 6 3 10 6 12 12 2 5 2 10-1 16-2 4-5 8-9 10-5 3-9 3-13 2zm10-38c-3-1-6-1-10 2l-7 11c-3 6-4 12-3 16l5 6c3 1 6 1 8-1 4-2 7-6 9-12 3-6 4-10 4-13-1-5-2-7-6-9zm23 9l19 8v1h-1l-3-1h-2l-2 4-8 18-2 7 2 4 4 3 5 1 5-3 5-8 6-15 1-3-1-2c0-1-1-2-3-2l1-1 12 5v1h-1l-3-1-2 1-2 3-6 14c-2 5-3 8-5 9l-6 4c-3 0-6 0-10-2-3-1-6-2-7-4-2-2-3-4-3-7 0-2 0-5 2-8l7-18 2-4-1-1c0-1-1-2-3-2v-1zm61 25a19 19 0 0111 27c-2 5-5 9-9 11-6 3-12 3-18 0a20 20 0 01-12-27 20 20 0 0128-11zm-1 2c-3-1-6-1-10 2l-7 11c-3 6-3 11-3 15 1 3 3 5 6 6l5 1 6-4c2-2 4-5 5-9 3-5 4-9 4-12l-1-6-5-4zm50 23l-6 15h1l4 1 4-1 3-4h1l-8 19-1-1c2-3 2-6 1-8l-5-4h-1l-5 11-1 4 1 1 2 2h1v1l-19-8v-1l1 1h3l2-1 1-3 11-24 1-4-1-1-2-2h-1v-1l31 13-4 10h-1v-6c0-2-2-4-3-5l-6-3-4-1zm28 40l-13-6-3 3-2 3v3l3 2v1l-13-5 1-1 4-1c1-1 3-1 5-4l26-23h1v36l1 6 2 2-1 1-17-7v-1h1l3 1 1-1 1-1v-8zm0-2v-15l-12 10 12 5zm58-6l-3 10h-1v-6l-3-3-3-2-3-1-10 29-1 4 1 2 3 1 1 1v1l-20-7v-1h1l3 1 2-1 1-4 10-29-3-1h-6l-5 5h-1l3-10 34 11zm19 29h-15l-1 4-1 3 1 2 4 1v1h-13v-1l3-2 4-6 15-32 14 33 3 6 3 1v2l-19-1v-1h4l1-2-1-1v-2l-2-5zm-1-2l-6-14-6 13 12 1zm41-36l6 15 1-1 4-2 1-4v-5h1l7 18v1c-2-4-4-6-6-6h-6l-1 1 5 11 1 4h5l1-1v1l-19 8v-1h1l2-2 1-2-1-3-10-24-2-4-2-1-3 1h-1v-1l31-13 4 11h-1l-4-4-6-1-6 2-3 2zm33-14l7 15v-1c3-1 4-2 5-4l-1-7 1-1 8 19-1 1-4-5-3-1c-1-1-3 0-4 1l4 10 2 4h4l2-1 7-6c1-3 2-6 1-9l1-1 4 13-32 13v-1h1l2-2 1-2-2-3-10-25-1-3-2-1-3 1h-1l-1-1 31-13 5 11-1 1-5-5-5-1-6 2-4 2zm45 2l4 10 2 4 2 1 3-1 1 1-19 8-1-1 4-2 1-2-2-4-10-24-2-4h-2l-3 1-1-1 17-8 11-3c2 0 4 0 6 2 2 1 3 2 4 5 2 2 2 5 0 7 0 2-2 4-4 5l14 9 4 2h3v1l-11 5-19-12-2 1zm-8-18l7 16 1-1 6-3 1-3v-6l-5-5c-2-1-4-1-7 1l-3 1zm26-13l19-8v1h-1l-3 2v1l1 4 8 18 3 7 4 1 5-1c2 0 3-2 4-3l2-5-3-9-6-15-2-3-2-1-4 1v-1l12-6 1 1-1 1-2 2-1 2 1 3 6 14 3 10c0 2 0 4-2 7-1 3-4 5-8 6-3 2-6 2-8 2l-7-2-4-7-8-18-2-4h-2l-3 1v-1zm52-23l28 15-7-16-3-4-5 1v-1l12-6 1 1-3 3-1 2 1 4 13 30H6l-37-19 9 23 4 4c2 1 2 0 4-1l1 1-13 5-1-1c2 0 4-1 4-3v-4l-12-26-1-1-3-1-2 1-1-1 13-6zm61-26l5 10h-1l-4-4-4-1-4 1-3 1 12 29 2 3 2 1 3-1h1v1l-19 8v-1l1-1 2-1 1-2-2-4-12-28-2 1c-3 1-4 3-5 4v8H4l-5-10 33-14z"/><path fill="#FFF" d="M74 902v557c0 148-297 197-297 197s-297-49-297-197V902H74z"/><path fill="#2F8F22" d="M74 1459c0 148-297 197-297 197s-297-49-297-197c0 0 0-12 6-19 0 0-3 25 16 43 0 0-15-26 0-52 0 0-6 33 15 53 0 0-11-28 1-58 0 0-6 50 17 60 0 0 6-29-3-47 0 0 15 6 15 47 0 0 5-6 6-36 0 0 1 35 12 42 0 0 4-3-1-19-5-15 2-21 3-20 0 0-2 17 12 30 0 0-6-27 3-31 0 0-2 23 16 28 0 0 1-6-3-14 0 0-3-9-1-15 0 0 6 20 14 24 0 0-5-12 0-24 0 0 1 17 16 24 0 0-10-13-6-28l99 5 51 2 154-11 26-22s11 14-6 37c0 0 17-3 22-28 0 0 7 14-3 29 0 0 19-18 21-38 0 0 7 20-10 41 0 0 15-5 22-28 0 0 5 14-10 33 0 0 28-15 27-45 0 0 12 17-1 40 0 0 14-13 15-32 0 0 8 9 0 32 0 0 17-16 20-34 0 0 3 17-12 37 0 0 11-2 20-22 0 0 3 8-6 22 0 0 10-1 16-20 0 0 1 11-2 21 0 0 8-5 9-25 0 0 4 6 4 15v3z"/><path fill="#D40000" stroke="#000" stroke-width="2.2" stroke-linejoin="round" d="M-79 1137s-10 2-23-2-19-3-23 0c0 0 6-11-8-19 0 0 5 10-1 15 0 0-3 3-6-1l-9-8s11-4 9-15-8-13-12-15v9s-12-7 5-16 13-16 10-20c-3-5-9-11-12-13 0 0 3 6 3 10-1 4-9 7-7-1s0-6 0-14c0 0 14 5 20-9 0 0 6-15-13-23 0 0 5 6 3 11 0 0-4 7-9 1s-8-7-7-14c0 0 17 2 12-16 0 0-3 12-24-4 0 0 14-15 8-26 0 0-2-6-17-2 0 0 13-9 8-16 0 0-3-5-16 1 0 0 5-8-7-17 0 0-8 4-12 8l-14-14s-10 3-12 14c0 0-5-5-15-8 0 0-5 10 2 17 0 0-5 0-14-3 0 0-10-5-8 3 1 9 2 11 4 15 0 0-22-5-21 7 0 8 3 15 10 21 0 0-12 16-23 4 0 0-4 4 4 15 0 0 8 8 2 14 0 0-9 7-13-7 0 0-14 14 2 25 0 0 11 6 22-3 0 0-3 27-14 22 0 0-6-5 5-10 0 0-16-3-19 13 0 0-2 13 12 17 0 0 11 4 0 13 0 0-8 6-3 15 0 0 7 10-9 11l-12-1s-4 6-1 14c0 0-8-6-26 0s-17 2-18 4l-5 9 9 11-2 13 5 3 37-17 38-20 31 2 19 5 25 2 18-10h27l28 14 33 20 18 3 13-1v-26l-7-10z"/><path fill="#D40000" stroke="#000" stroke-width="2.2" stroke-linejoin="round" d="M-379 1168s15 8 21-1c0 0 8-15-10-21 0 0 10-11 0-21 0 0-6-6-15-2 0 0-4-8-12-7 0 0-8-1-11 8 0 0-11-4-17 2 0 0-10 11 4 20l10 1 10-5 11 4s-3 11 9 22z"/><path fill="#64B4D1" stroke="#000" stroke-width="1.6" d="M-57 1142c17-2 24 13 24 13 9 21-11 33-11 33 2 4 2 11 2 11 27 3 22 34 22 34l-9-8c-15-6-32 7-43 30s-6 33-4 59c2 27 45 43 45 43l-34 86c-13 34-41 20-49 13s-10-3-14 0 18 21-22 37c-41 16-48 29-54 33-7 4-35 1-38-2-3-4-1-4-11-10-11-7-29-12-48-22-19-9-19-21-19-23 1-3 7-23-15-7-23 16-42-8-42-8a657 657 0 01-39-97c1 0-1 3 16-7s24-26 30-41c6-16 0-43-2-49s-15-30-30-35-26 8-26 8-4-31 23-34l1-11s-19-12-10-33c0 0 6-15 24-13l-5 8s-4 43 60 14 62-35 98-16l27-1s38-17 50-10l57 33s42 16 51-14l-5-14z"/><path fill="#FFF" stroke="#00247D" stroke-width="2.2" stroke-miterlimit="10" d="M-249 1331l-4-22s-5-14 3-23l10-12s6-8 14-9l8-2c1-2 9-16 30 0 0 0 6-10 16-12 0 0 10-3 15 5 0 0 12-9 23 5 0 0 14-8 24 8 0 0 14-7 23 8 8 14 7 20 7 20l6 23 23 28-53 20h-24l-47 13-83 6-24-27 33-29z"/><path fill="#D40000" stroke="#000" stroke-width="2.2" stroke-linejoin="round" d="M-320 1470s-12 1-19 4l-18 11s-4 5-18 2c0 0-25-6-25 14 0 0-30 2-18 29 0 0 8 20 26 5 0 0-11 16 10 23 0 0 15 3 20-12 0 0 2-7-4-14 0 0 7-2 13-10 0 0-16 20 1 27 0 0 22 6 23-17 0 0-2-10 7-14 0 0 17-4 25-23 0 0-25-13-23-25zm-50-197s-20-9-29 0c0 0-13-8-26 0 0 0-13 8-22 17 0 0-6 5-4 22 0 0 4 12 2 18 0 0-4-1-13 9 0 0-11 13-20 2 0 0 3 15 20 13 0 0-8 6-1 24 0 0 6 12-3 28 0 0 16-7 15-25 0 0-1-12 3-21 0 0-4 8 6 25 0 0 8 12 2 25 0 0 15-6 14-24-2-19-11-11-5-28 0 0 1 8 6 13 5 4 10 12 8 24 0 0 9-11 7-23s-4-15-4-15l29-17 14-26 1-41z"/><path fill="none" stroke="#000" stroke-width="2.2" stroke-miterlimit="10" d="M-414 1346s-12-1-14-10m-21-6s4 0 8 4c0 0 3 4 7 3"/><path d="M-397 1311s-6 0-9-3c0 0-4-2-6 1 0 0-3 6 3 9 0 0 7 3-5 11 0 0 15-5 9-12 0 0-6-5-4-6 0 0 1-2 3 0s7 1 9 0z"/><path fill="#784421" stroke="#000" stroke-width="1.6" d="M-201 1343l-48-166-2 1 42 167z"/><path d="M-368 1528s-11-6-21 1c0 0 1-4 8-6 0 0 4-11 15-10 0 0-4 6-10 10 0 0 6 1 8 5z"/><path fill="#64B4D1" stroke="#00247D" stroke-width="1.6" stroke-miterlimit="2.6" d="M-408 1554s-18-11-8-30c0 0 3-5 8-4 0 0 11 3 3 19 0 0-5 10-3 15zm36 18s-25-12-17-31c0 0 2-7 8-7 0 0 10 1 8 14 0 0-3 13 1 24z"/><path d="M-377 1498l-11 10-7-7s5 0 7 2c0 0 4-4 11-5z"/><path fill="#64B4D1" stroke="#00247D" stroke-width="1.6" stroke-miterlimit="2.6" d="M-354 1567s20-5 16-26c0 0-2-9-10-7 0 0-11 2-4 15 0 0 4 10-2 18z"/><path fill="#F5CE00" stroke="#000" stroke-width="2.2" stroke-miterlimit="2.6" d="M-264 1130l20 6s19 9 42 0l19-6-13 18v10l7 11s-4 2-18-6c0 0-15-12-33 0 0 0-10 6-19 6l12-13-4-12-13-14z"/><path fill="#FFF" d="M-346 1542l-1-1-1 1s-2 3 0 8v6l1 1 1-1s1-3-1-6c0 0-2-5 1-8z"/><path fill="#D40000" stroke="#000" stroke-width="2.2" stroke-linejoin="round" d="M-69 1168s-15 8-21-1c0 0-7-15 10-21 0 0-10-11 0-21 0 0 6-6 15-2 0 0 4-8 13-7 0 0 8-1 10 8 0 0 11-4 17 2 0 0 10 11-4 20l-10 1-10-5-11 4s3 11-9 22z"/><path fill="#F5CE00" stroke="#000" stroke-width="2.2" stroke-miterlimit="2.6" d="M-183 1157s-1 3-4 3c0 0-3 1-5-3v-1c0-2-1-7 5-11 0 0 9-8 26 1l24 12 27 15s11 5 28 6c0 0 22 1 32-14 0 0 7-13 0-20 0 0-3-4-8-3-2 0-4 1-7 4 0 0-3 5 1 9 0 0 5 3 7-4 0 0 0-1 0 0 1 0 2 6-1 10 0 0-14 21-51-1l-50-27s-24-13-39 7c0 0-12 16 3 27 0 0 12 7 19-4 0 0 6-11-4-15 0 0-8-4-11 4s6 11 7 5c0 0 0-2 1 0z"/><path fill="#E4CB5E" stroke="#000" stroke-width="1.6" stroke-miterlimit="2.6" d="M-379 1242v-31c0-3 0-5 3-8 4-3 8-7 14 6 0 0 11-12 14-13 0 0 7-6 11 2 0 0 6-9 11-11 0 0 11-7 11 14l9-8s6-5 14 2l14 16s3 4 3 10c0 0 0 6 3 10 0 0 4 4 8 4 0 0 9 1 12 9 0 0 2-2 6 39v73l-49 60-80-23-32-13-7-24 31-19 17-46-6-31-7-18z"/><path fill="#784421" stroke="#000" stroke-width="1.6" d="M-160 1281l4-6 9-7s13 36 14 44v11s21 6 24 37l-17 32-26-15-8-6v-90z"/><path fill="#FFF" d="M-413 1529v-2l-1 1s-6 6-1 15l1 1v-2s-4-7 1-13z"/><path fill="none" stroke="#000" stroke-width="2.2" stroke-miterlimit="10" d="M-332 1523l-2-6v-5"/><path fill="none" stroke="#000" stroke-width="1.6" stroke-miterlimit="10" d="M-315 1201s0 8 3 14c2 5 9 15 10 21"/><path fill="#D40000" stroke="#000" stroke-width="2.2" stroke-linejoin="round" d="M-128 1470s13 1 19 4l19 11s3 5 18 2c0 0 25-6 25 14 0 0 30 2 18 29 0 0-9 20-26 5 0 0 11 16-10 23 0 0-15 3-20-12 0 0-2-7 4-14 0 0-8-2-13-10 0 0 16 20-1 27 0 0-22 6-23-17 0 0 2-10-7-14 0 0-17-4-25-23 0 0 25-13 22-25z"/><path fill="none" stroke="#000" stroke-width="1.6" stroke-miterlimit="10" d="M-325 1236l21 165m-16-166l23 154m-19-154l27 152"/><path fill="#784421" stroke="#000" stroke-width="1.6" d="M-267 1371l-47-165-2 1 42 167z"/><path fill="none" stroke="#000" stroke-width="1.6" stroke-miterlimit="10" d="M-301 1229l48 122m-51-120l47 127"/><path fill="#FFF" d="M-381 1560s-5-5-5-15v-2l-2 2s-1 10 6 16h1v-1z"/><path fill="none" stroke="#000" stroke-width="1.6" stroke-miterlimit="10" d="M-299 1227l50 111m-63-104l30 150"/><path fill="#F5CE00" stroke="#000" stroke-width="2.2" stroke-miterlimit="2.6" d="M-62 1345c-22-12-27-40-27-40-5-27 6-49 6-49 14-30 38-35 38-35s-24 16-31 38c0 0-5 19-2 37s2 14 7 28l9 21z"/><path fill="#784421" stroke="#000" d="M-156 1275l-92 29-5 41c-22 32-66 37-66 37l34 37 66 14 35-27 32-29c-4-16-2-39-2-39l2-13s-6-37-4-50z"/><path fill="none" stroke="#000" stroke-width="1.6" stroke-miterlimit="10" d="M-252 1335s61-19 97-34m-126 68s76-13 129-44l19-13"/><path fill="none" stroke="#000" stroke-width="1.6" stroke-miterlimit="10" d="M-133 1323l-21 15s-84 39-148 40m148-12s-65 33-102 34"/><path fill="#D40000" stroke="#000" stroke-width="2.2" stroke-linejoin="round" d="M-77 1273s20-9 29 0c0 0 13-8 26 0 0 0 13 8 22 17 0 0 6 5 4 22 0 0-4 12-2 18 0 0 5-1 13 9 0 0 11 13 20 2 0 0-3 15-20 13 0 0 8 6 1 24 0 0-6 12 3 28 0 0-15-7-15-25 0 0 1-12-3-21 0 0 4 8-6 25 0 0-8 12-2 25 0 0-15-6-14-24 2-19 11-11 5-28 0 0-1 8-6 13s-10 12-8 24c0 0-9-11-7-23s4-15 4-15l-29-17-14-26-1-41z"/><path fill="#FFF" stroke="#00247D" stroke-width="2.2" stroke-miterlimit="10" d="M-405 1377s3-13 15-8c0 0 4-21 27-22 22 0 23 22 23 24 0 0 7-10 18-9 0 0 19-1 12 29l3 4s15-34 44-25c0 0 29 9 10 37 0 0 15 19 27 17s23-5 35-27c12-21 40-24 47-23s13 6 14 11c0 0 15-50 68-42l21 11 8 4-12 34-29 66-22 7-24-13-8 4v20l-31 22-22 9-23 16-6 14s-13-5-27 0l-5-11-14-14-53-25-10-31-10-4-11 12-16 2-24-16-25-73z"/><path fill="none" stroke="#000" stroke-width="2.2" stroke-miterlimit="2.6" d="M-172 1135s-21-1-20 20"/><path fill="#F5CE00" stroke="#000" stroke-width="2.2" stroke-miterlimit="2.6" d="M-38 1359c-36-11-45-49-45-49-7-28 4-53 4-53 16-39 44-39 44-39 14 0 15 12 15 12 2 8-4 11-4 11-10 5-16-2-16-2-4-5-1-9-1-9 3-4 7-2 7-2 4 1 4 6 4 6s0 0 0 0 0 0 0 0 1-6-5-7c0 0-10-2-23 14 0 0-16 21-16 48 0 0-2 51 51 64 0 0-6 9-16 39 0 0-12 38-23 59 0 0-14 30-47 18 0 0-19-9-19-23 0 0-2-13 10-14 0 0 11-1 11 9 0 0 0 11-12 8 0 0-4-1-4-5 0 0 1-4 6-2h0l-4-1s-2 1-2 4c0 0 0 2 3 4l5 1s4 6 11 9c10 3 19 0 24-4 6-5 10-13 11-15l18-46s6-20 11-31l2-4z"/><path fill="#F5CE00" stroke="#000" stroke-width="2.2" stroke-miterlimit="2.6" d="M-138 1456s6-1 6 5c0 0 0 9-10 7 0 0-11-2-7-14 0 0 2-8 12-7 0 0 10 1 14 14 0 0 3 11-2 20-7 10-22 17-29 20 0 0-30 12-39 19 0 0-14 10-8 19 0 0 2 4 6 4 0 0 4 0 5-4 0 0 0 0 0 0s0 0 0 0l-3 3s-3 2-6-1c0 0-3-3 0-8 0 0 3-6 11-2 0 0 8 4 5 11 0 0-3 7-12 7 0 0-6 0-11-4-6-7-7-21-1-28 0 0 6-7 17-11l31-13c9-4 17-8 22-14 0 0 5-5 6-14 0 0 1-7-3-8l-4-1s0 0 0 0 0 0 0 0z"/><path fill="none" stroke="#000" stroke-width="2.2" stroke-miterlimit="2.6" d="M-138 1456s8-1 12 8c0 0 3 5 3 8m3-31s-8 2-4 12 10 13 12 14"/><path fill="#F5CE00" stroke="#000" stroke-width="2.2" stroke-miterlimit="2.6" d="M-264 1157s1 3 4 3c0 0 3 1 4-3l1-1c0-2 0-7-5-11 0 0-9-8-27 1l-23 12-27 15s-11 5-28 6c0 0-22 1-32-14 0 0-7-13 0-20 0 0 3-4 8-3 2 0 4 1 6 4 0 0 4 5 0 9 0 0-5 3-7-4h-1s-1 6 2 10c0 0 14 21 51-1l49-27s25-13 40 7c0 0 12 16-3 27 0 0-12 7-19-4 0 0-6-11 3-15 0 0 9-4 12 4s-6 11-7 5c0 0-1-2-1 0zm-121 188c22-12 27-40 27-40 5-27-6-49-6-49-14-30-38-35-38-35s24 16 30 38c0 0 6 19 3 37s-2 14-7 28l-9 21z"/><path fill="none" stroke="#000" stroke-width="2.2" stroke-miterlimit="2.6" d="M-275 1135s20-1 20 20"/><path fill="#F5CE00" stroke="#000" stroke-width="2.2" stroke-miterlimit="2.6" d="M-409 1359c35-11 45-49 45-49 7-28-4-53-4-53-17-39-44-39-44-39-14 0-15 12-15 12-2 8 4 11 4 11 10 5 16-2 16-2 3-5 0-9 0-9-2-4-7-2-7-2-3 1-3 6-3 6s0 0 0 0 0 0 0 0-1-6 5-7c0 0 10-2 23 14 0 0 16 21 16 48 0 0 2 51-51 64 0 0 6 9 16 39 0 0 12 38 23 59 0 0 14 30 47 18 0 0 19-9 19-23 0 0 2-13-10-14 0 0-11-1-11 9 0 0-1 11 12 8 0 0 4-1 3-5 0 0 0-4-6-2 0 0 0 0 0 0s0 0 0 0l5-1s2 1 2 4c0 0 0 2-3 4l-5 1s-4 6-11 9c-11 3-19 0-24-4-6-5-10-13-11-15s-11-23-18-46c0 0-6-20-11-31l-2-4z"/><path fill="#F5CE00" stroke="#000" stroke-width="2.2" stroke-miterlimit="2.6" d="M-309 1456s-7-1-7 5c0 0 1 9 11 7 0 0 11-2 7-14 0 0-2-8-12-7 0 0-10 1-14 14 0 0-3 11 2 20 6 10 22 17 29 20 0 0 30 12 39 19 0 0 14 10 8 19 0 0-3 4-6 4 0 0-4 0-5-4 0 0 0 0 0 0s0 0 0 0l3 3s3 2 6-1c0 0 3-3 0-8 0 0-3-6-12-2 0 0-7 4-4 11 0 0 3 7 12 7 0 0 6 0 10-4 7-7 7-21 2-28 0 0-6-7-17-11l-31-13c-9-4-17-8-22-14 0 0-5-5-6-14 0 0-1-7 3-8l4-1s0 0 0 0 0 0 0 0z"/><path fill="none" stroke="#000" stroke-width="2.2" stroke-miterlimit="2.6" d="M-309 1456s-8-1-12 8l-4 8m-2-31s7 2 4 12c-4 10-11 13-12 14m94-313s17-11 36 1"/><path fill="none" stroke="#000" stroke-width="1.6" stroke-miterlimit="2.6" d="M-342 1262s2-10-9-27l-11-26m25-11a429 429 0 0018 46"/><path fill="none" stroke="#000" stroke-width="1.6" stroke-miterlimit="10" d="M-334 1273s7 7 6 19m-28-27s8 4 7 24c0 0-1 14 10 21m-18 5s23-2 25 12c0 0 0 13 8 15 0 0 12 1 14 12m-39-23l7 9m22-24s6 9 7 14m18-121l11 11m11 33s12 5 10 34c0 0-2 17 3 26"/><path fill="#784421" stroke="#000" stroke-width="1.6" d="M-327 1233l1 3s20 0 31-13l-1-3s-18-1-31 13z"/><path fill="none" stroke="#000" stroke-width="1.6" stroke-miterlimit="10" d="M-253 1343s71-21 99-33"/><path fill="#784421" stroke="#000" d="M-261 1210l35-14 1 3-35 13z"/><path fill="none" stroke="#000" stroke-width="1.6" stroke-miterlimit="10" d="M-257 1211l23 114m-19-116l26 114m-22-115l29 113m-17-118l39 85m-34-87l42 85m-38-86l46 83m-54 43l18-6m-31-5s52-16 92-32m-93 38s67-18 93-31m-73 85l4 11 9-3-3-11m17-5l4 11 9-3-3-10m-55-61l-1-14 88-27 5 12m-56 3l5 13m26-22l6 12m1-14l6 11m1-13l6 12m0-14l10-6 4 11m-9-8l5 11"/><path fill="none" stroke="#00247D" stroke-width="2.2" stroke-miterlimit="10" d="M-374 1427s-17-17 0-34c0 0-19-9-16-24m47 72s-18 3-13-32l-10 21c-2 5-1 14 7 18 3 2 19 6 24-4m-28-56s-8 7-2 19m9-17s1 12 7 18m-2-23s0 14 10 23m-5-28s0 16 12 26m46-3s6-13 18-12c0 0-6 3-5 9 0 0-1 10 10 11 0 0 8 1 12-4"/><path fill="none" stroke="#00247D" stroke-width="2.2" stroke-miterlimit="10" d="M-258 1462s-31-14-28-35c0 0 1-13 14-18m-7 13s-2 9 4 15m3-21s-4 9 3 17m4-22s-4 8 1 15m-28 38s16 15 29 15m-35-10s16 12 26 14m-32-11s20 17 32 19m47 15s-19 10-4 21m-8-32l31-16m-23 22s31-19 40-23m-24 24s26-18 40-25m-23 24s18-14 36-24m6-18s-9-13-38 0c0 0 11-10 32-18m30-56s2 11 0 17"/><path fill="none" stroke="#00247D" stroke-width="2.2" stroke-miterlimit="10" d="M-178 1437s6-10 22-14c0 0 4 11 16 8 0 0 18-3 13-23 0 0-4-15-25-17m62-25s22 4 21 21c0 0 2 26-25 31m22-41s6-13 19-18m-16-8s6 10 10 11m-13-3l8 8m-10-2l6 6m-115-106s4-7 15-4m42 54s6-27 29-17m-9-2s2-13-4-19m-12 18s3 5 0 9"/><path fill="#64B4D1" stroke="#00247D" stroke-width="1.6" stroke-miterlimit="2.6" d="M-76 1572s26-12 18-31c0 0-2-7-8-7 0 0-10 1-8 14 0 0 3 13-2 24z"/><path fill="#FFF" d="M-66 1560s5-5 4-15l1-2 1 2s2 10-5 16h-1v-1z"/><path fill="#64B4D1" stroke="#00247D" stroke-width="1.6" stroke-miterlimit="2.6" d="M-39 1554s18-11 8-30c0 0-3-5-8-4 0 0-12 3-3 19 0 0 5 10 3 15z"/><path fill="#FFF" d="M-35 1529v-2l1 1s6 6 1 15l-1 1v-2s4-7-1-13z"/><path fill="#64B4D1" stroke="#00247D" stroke-width="1.6" stroke-miterlimit="2.6" d="M-93 1567s-20-5-16-26c0 0 2-9 10-7 0 0 10 2 4 15 0 0-4 10 2 18z"/><path fill="#FFF" d="M-101 1542v-1l2 1s2 3 0 8c0 0-2 3-1 6v1l-1-1s-1-3 1-6c0 0 2-5-1-8z"/><path d="M-79 1528s12-6 21 1c0 0-1-4-8-6 0 0-4-11-15-10l10 10s-6 1-8 5zm9-30l10 10 8-7s-5 0-8 2c0 0-3-4-10-5z"/><path fill="none" stroke="#000" stroke-width="2.2" stroke-miterlimit="10" d="M-115 1523s-1-3 1-6c0 0 2-2 1-5m80-166s12-1 14-10m21-6s-4 0-8 4c0 0-2 4-7 3"/><path d="M-50 1311s6 0 9-3c0 0 4-2 6 1 0 0 3 6-3 9 0 0-7 3 5 11 0 0-14-5-9-12 0 0 7-5 4-6 0 0 0-2-3 0-2 2-7 1-9 0z"/><path fill="#64B4D1" stroke="#00247D" stroke-width="1.6" stroke-miterlimit="2.6" d="M-42 1161s3-4 2-16c-1-11 9-12 13-9 0 0 4 3 0 11-2 4-6 9-15 14z"/><path fill="#FFF" d="M-38 1152s4-4 2-13v-1l1 1s3 9-2 14h-1v-1z"/><path fill="#64B4D1" stroke="#00247D" stroke-width="1.6" stroke-miterlimit="2.6" d="M-45 1156s0-4-8-12-2-15 3-15c0 0 5 0 7 8 1 4 2 10-2 19z"/><path fill="#FFF" d="M-46 1146s0-5-7-11l-1-1h2s8 6 8 13h-1l-1-1z"/><path fill="#64B4D1" stroke="#00247D" stroke-width="1.6" stroke-miterlimit="2.6" d="M-56 1153s-2-4-12-7c-10-4-7-12-3-14 0 0 5-2 9 4 3 3 6 8 6 17z"/><path fill="#FFF" d="M-60 1146s-2-5-11-7l-1-1 1-1s10 2 13 8l-1 2-1-1z"/><path fill="#64B4D1" stroke="#00247D" stroke-width="1.6" stroke-miterlimit="2.6" d="M-50 1157s-4 1-15-4c-10-5-15 4-13 8 0 0 2 5 10 4 5 0 11-1 18-8z"/><path fill="#FFF" d="M-74 1160s5 3 13 0h1v1s-9 4-15 1l-1-2h2z"/><path fill="none" stroke="#000" stroke-width="2.2" stroke-miterlimit="2.6" d="M-65 1123s5 3 4 9"/><path fill="none" stroke="#000" stroke-width="2.2" stroke-miterlimit="10" d="M-42 1124s2 7 0 10"/><path fill="#64B4D1" stroke="#00247D" stroke-width="1.6" stroke-miterlimit="2.6" d="M-406 1161s-3-4-2-16c1-11-9-12-12-9 0 0-4 3-1 11 2 4 6 9 15 14z"/><path fill="#FFF" d="M-410 1152s-4-4-2-13v-1l-1 1s-2 9 2 14h1v-1z"/><path fill="#64B4D1" stroke="#00247D" stroke-width="1.6" stroke-miterlimit="2.6" d="M-403 1156s0-4 8-12 2-15-3-15c0 0-5 0-7 8-1 4-2 10 2 19z"/><path fill="#FFF" d="M-402 1146s0-5 7-11l1-1h-2s-7 6-7 13c0 0 0 1 0 0l1-1z"/><path fill="#64B4D1" stroke="#00247D" stroke-width="1.6" stroke-miterlimit="2.6" d="M-392 1153s2-4 12-7c10-4 7-12 3-14 0 0-4-2-9 4-3 3-6 8-6 17z"/><path fill="#FFF" d="M-388 1146s3-5 12-7v-1l-1-1s-9 2-12 8v2l1-1z"/><path fill="#64B4D1" stroke="#00247D" stroke-width="1.6" stroke-miterlimit="2.6" d="M-398 1157s4 1 15-4 15 4 13 8c0 0-2 5-10 4-5 0-11-1-18-8z"/><path fill="#FFF" d="M-374 1160s-4 3-13 0h-1v1s10 4 16 1v-2h-2z"/><path fill="none" stroke="#000" stroke-width="2.2" stroke-miterlimit="2.6" d="M-383 1123s-5 3-4 9"/><path fill="none" stroke="#000" stroke-width="2.2" stroke-miterlimit="10" d="M-406 1124s-2 7 0 10"/><path d="M-177 1064s4 10 2 18c-1 8 1 10 3 12 3 1 8-1 9-7 0 0 7 12-6 21 0 0-9 6-17-2-3-2-4-10-3-17 0 0 2-9-1-19 0 0 5 6 4 17 0 0-3 20 12 19 0 0 10 0 10-12 0 0-3 4-8 3-4-1-7-5-6-10 0-5 2-15 1-23zm-17 33s-1 16-15 20c0 0 2-3-1-11 0 0-4-4-3-12 0 0-5 4 0 14 4 5 1 12 0 13-1 0 24-4 19-24zm-19-16s-3-4-3-13c-1-9-2-11-4-12l2 13c-1 4 0 7 1 10 0 0-8 1-13-11-5-11-10-10-12-10 0 0 3 0 8 11 6 10 7 12 21 12zm-37-24s5 11 5 17c0 0-11-3-14-13 0 0-11 4-7 17 0 0-10-3-14-11 0 0 5 4 11 6 0 0-1-11 12-15 0 0 2 10 9 12l-2-13zm18-18s3 5 11 5c4 0 7 0 11-5 0 0 0 9-11 9 0 0-11 0-11-9zm-47 63l7 7s4 4 7-1c0 0 5-8 10-8 0 0-4 3-8 10 0 0-1 3-4 3-2 1-4 1-6-2l-6-9zm58-101c-11 0-2 9-2 9 0 14-11 18-18 14-8-4-2-14-2-14s-8 5-3 13c6 9 20 5 25-2 5 7 19 11 25 2 5-8-3-13-3-13s5 10-2 14c-8 4-19 0-18-14 0 0 9-9-2-9zm7-15s4 7 3 17c0 0 3-10-3-17zm-35 16s-1-7-8-8c0 0 6 4 8 8zm56 0s0-7 8-8c0 0-6 4-8 8zm-67 11s6 2 9-2l-9 2zm-18-45s6 0 13 9l-8 6s0-3 3-6c0 0-1-5-8-9zm110 0s-7 0-13 9l8 6s0-3-3-6c0 0 1-5 8-9zm-51 8s6 1 13-3c0 0 9-5 15 0 0 0-5-2-15 3 0 0-9 5-13 0z"/><path fill="#FFF" d="M-213 982s5-9 21-7c0 0-5 12-21 7z"/><ellipse fill="#784421" cx="-202.2" cy="978.9" rx="3" ry="3.8"/><ellipse cx="-202.2" cy="978.9" rx="1.8" ry="2.4"/><path d="M-246 963s10 0 16 4c0 0 6 4 13-1 0 0 8-5 13-11 0 0-12 8-16 9 0 0-4-3-6-7 0 0 1-4 7-10 0 0-9 3-10 10 0 0 1 5 5 8 0 0-2 1-6-2 0 0-9-3-16 0zm25 58c-8 7 0 7 0 7s8 0 0-7zm-5-45s-6 1-13-3c0 0-9-5-15 0 0 0 5-2 15 3 0 0 9 5 13 0z"/><path fill="#FFF" d="M-232 982s-5-9-20-7c0 0 4 12 20 7z"/><ellipse fill="#784421" cx="-242.7" cy="978.9" rx="3" ry="3.8"/><ellipse cx="-242.7" cy="978.9" rx="1.8" ry="2.4"/><path fill="none" stroke="#000" stroke-width="15" d="M75 902v557c0 148-297 197-297 197s-297-49-297-197V902H75z"/></svg>